<mxfile host="app.diagrams.net" modified="2023-05-17T14:31:19.690Z" agent="Mozilla/5.0 (Windows NT 10.0; Win64; x64) AppleWebKit/537.36 (KHTML, like Gecko) Chrome/113.0.0.0 Safari/537.36" etag="n5DJ9_VrJI1arjvNxUxS" version="21.3.2" type="github">
  <diagram name="Page-1" id="c7558073-3199-34d8-9f00-42111426c3f3">
    <mxGraphModel dx="1290" dy="545" grid="1" gridSize="10" guides="1" tooltips="1" connect="1" arrows="1" fold="1" page="1" pageScale="1" pageWidth="826" pageHeight="1169" background="none" math="0" shadow="0">
      <root>
        <mxCell id="0" />
        <mxCell id="1" parent="0" />
        <mxCell id="JlDimmkbK089iF16lzK3-96" value="Soldado" style="rounded=0;whiteSpace=wrap;html=1;" parent="1" vertex="1">
          <mxGeometry x="340" y="220" width="70" height="30" as="geometry" />
        </mxCell>
        <mxCell id="JlDimmkbK089iF16lzK3-97" value="Esta" style="rhombus;whiteSpace=wrap;html=1;" parent="1" vertex="1">
          <mxGeometry x="340" y="105" width="75" height="50" as="geometry" />
        </mxCell>
        <mxCell id="JlDimmkbK089iF16lzK3-98" value="Cuartel" style="rounded=0;whiteSpace=wrap;html=1;" parent="1" vertex="1">
          <mxGeometry x="500" y="105" width="70" height="45" as="geometry" />
        </mxCell>
        <mxCell id="JlDimmkbK089iF16lzK3-99" value="Codigo" style="ellipse;whiteSpace=wrap;html=1;" parent="1" vertex="1">
          <mxGeometry x="620" y="70" width="60" height="30" as="geometry" />
        </mxCell>
        <mxCell id="JlDimmkbK089iF16lzK3-101" value="Nombre" style="ellipse;whiteSpace=wrap;html=1;" parent="1" vertex="1">
          <mxGeometry x="620" y="110" width="60" height="30" as="geometry" />
        </mxCell>
        <mxCell id="JlDimmkbK089iF16lzK3-102" value="Ubicación" style="ellipse;whiteSpace=wrap;html=1;" parent="1" vertex="1">
          <mxGeometry x="620" y="150" width="60" height="30" as="geometry" />
        </mxCell>
        <mxCell id="JlDimmkbK089iF16lzK3-111" value="" style="endArrow=none;html=1;rounded=0;exitX=1;exitY=0.5;exitDx=0;exitDy=0;" parent="1" source="JlDimmkbK089iF16lzK3-98" edge="1">
          <mxGeometry width="50" height="50" relative="1" as="geometry">
            <mxPoint x="570" y="140" as="sourcePoint" />
            <mxPoint x="620" y="90" as="targetPoint" />
          </mxGeometry>
        </mxCell>
        <mxCell id="JlDimmkbK089iF16lzK3-115" value="" style="endArrow=none;html=1;rounded=0;entryX=1;entryY=0.5;entryDx=0;entryDy=0;exitX=0;exitY=0.5;exitDx=0;exitDy=0;" parent="1" source="JlDimmkbK089iF16lzK3-101" target="JlDimmkbK089iF16lzK3-98" edge="1">
          <mxGeometry width="50" height="50" relative="1" as="geometry">
            <mxPoint x="450" y="350" as="sourcePoint" />
            <mxPoint x="500" y="300" as="targetPoint" />
          </mxGeometry>
        </mxCell>
        <mxCell id="JlDimmkbK089iF16lzK3-116" value="" style="endArrow=none;html=1;rounded=0;entryX=1;entryY=0.5;entryDx=0;entryDy=0;exitX=0;exitY=0.5;exitDx=0;exitDy=0;" parent="1" source="JlDimmkbK089iF16lzK3-102" target="JlDimmkbK089iF16lzK3-98" edge="1">
          <mxGeometry width="50" height="50" relative="1" as="geometry">
            <mxPoint x="620" y="280" as="sourcePoint" />
            <mxPoint x="670" y="230" as="targetPoint" />
          </mxGeometry>
        </mxCell>
        <mxCell id="JlDimmkbK089iF16lzK3-117" value="" style="endArrow=none;html=1;rounded=0;exitX=1;exitY=0.5;exitDx=0;exitDy=0;entryX=0;entryY=0.5;entryDx=0;entryDy=0;" parent="1" source="JlDimmkbK089iF16lzK3-97" target="JlDimmkbK089iF16lzK3-98" edge="1">
          <mxGeometry width="50" height="50" relative="1" as="geometry">
            <mxPoint x="620" y="280" as="sourcePoint" />
            <mxPoint x="670" y="230" as="targetPoint" />
          </mxGeometry>
        </mxCell>
        <mxCell id="JlDimmkbK089iF16lzK3-119" value="" style="endArrow=none;html=1;rounded=0;entryX=0.5;entryY=1;entryDx=0;entryDy=0;exitX=0.5;exitY=0;exitDx=0;exitDy=0;" parent="1" source="JlDimmkbK089iF16lzK3-96" target="JlDimmkbK089iF16lzK3-97" edge="1">
          <mxGeometry width="50" height="50" relative="1" as="geometry">
            <mxPoint x="470" y="210" as="sourcePoint" />
            <mxPoint x="520" y="160" as="targetPoint" />
          </mxGeometry>
        </mxCell>
        <mxCell id="JlDimmkbK089iF16lzK3-120" value="Codigo id&lt;br&gt;F.K" style="ellipse;whiteSpace=wrap;html=1;" parent="1" vertex="1">
          <mxGeometry x="820" y="40" width="76" height="30" as="geometry" />
        </mxCell>
        <mxCell id="bOJx-L6nIY0GMy3P5R1K-1" value="" style="endArrow=none;html=1;rounded=0;entryX=0.5;entryY=0;entryDx=0;entryDy=0;" parent="1" target="bOJx-L6nIY0GMy3P5R1K-2" edge="1">
          <mxGeometry width="50" height="50" relative="1" as="geometry">
            <mxPoint x="570" y="130" as="sourcePoint" />
            <mxPoint x="760" y="100" as="targetPoint" />
            <Array as="points">
              <mxPoint x="570" y="60" />
              <mxPoint x="764" y="60" />
            </Array>
          </mxGeometry>
        </mxCell>
        <mxCell id="bOJx-L6nIY0GMy3P5R1K-2" value="Tiene" style="rhombus;whiteSpace=wrap;html=1;" parent="1" vertex="1">
          <mxGeometry x="729.5" y="110" width="67" height="30" as="geometry" />
        </mxCell>
        <mxCell id="bOJx-L6nIY0GMy3P5R1K-3" value="" style="endArrow=none;html=1;rounded=0;entryX=0.5;entryY=1;entryDx=0;entryDy=0;exitX=0.5;exitY=0;exitDx=0;exitDy=0;" parent="1" source="bOJx-L6nIY0GMy3P5R1K-2" target="JlDimmkbK089iF16lzK3-120" edge="1">
          <mxGeometry width="50" height="50" relative="1" as="geometry">
            <mxPoint x="590" y="210" as="sourcePoint" />
            <mxPoint x="640" y="160" as="targetPoint" />
          </mxGeometry>
        </mxCell>
        <mxCell id="bOJx-L6nIY0GMy3P5R1K-4" value="Compañia" style="rounded=0;whiteSpace=wrap;html=1;" parent="1" vertex="1">
          <mxGeometry x="731.5" y="217.5" width="63" height="35" as="geometry" />
        </mxCell>
        <mxCell id="bOJx-L6nIY0GMy3P5R1K-5" value="" style="endArrow=none;html=1;rounded=0;entryX=0.5;entryY=1;entryDx=0;entryDy=0;exitX=0.5;exitY=0;exitDx=0;exitDy=0;" parent="1" source="bOJx-L6nIY0GMy3P5R1K-4" target="bOJx-L6nIY0GMy3P5R1K-2" edge="1">
          <mxGeometry width="50" height="50" relative="1" as="geometry">
            <mxPoint x="590" y="210" as="sourcePoint" />
            <mxPoint x="640" y="160" as="targetPoint" />
          </mxGeometry>
        </mxCell>
        <mxCell id="bOJx-L6nIY0GMy3P5R1K-6" value="Nro. Compañia" style="ellipse;whiteSpace=wrap;html=1;" parent="1" vertex="1">
          <mxGeometry x="661.5" y="302.5" width="70" height="30" as="geometry" />
        </mxCell>
        <mxCell id="bOJx-L6nIY0GMy3P5R1K-7" value="" style="ellipse;whiteSpace=wrap;html=1;" parent="1" vertex="1">
          <mxGeometry x="794.5" y="297.5" width="70" height="35" as="geometry" />
        </mxCell>
        <mxCell id="bOJx-L6nIY0GMy3P5R1K-8" value="Agrupación" style="rhombus;whiteSpace=wrap;html=1;" parent="1" vertex="1">
          <mxGeometry x="610" y="215" width="80" height="40" as="geometry" />
        </mxCell>
        <mxCell id="bOJx-L6nIY0GMy3P5R1K-9" value="" style="endArrow=none;html=1;rounded=0;entryX=0;entryY=0.5;entryDx=0;entryDy=0;exitX=1;exitY=0.5;exitDx=0;exitDy=0;" parent="1" source="bOJx-L6nIY0GMy3P5R1K-8" target="bOJx-L6nIY0GMy3P5R1K-4" edge="1">
          <mxGeometry width="50" height="50" relative="1" as="geometry">
            <mxPoint x="570" y="250" as="sourcePoint" />
            <mxPoint x="620" y="200" as="targetPoint" />
          </mxGeometry>
        </mxCell>
        <mxCell id="bOJx-L6nIY0GMy3P5R1K-10" value="" style="endArrow=none;html=1;rounded=0;entryX=0;entryY=0.5;entryDx=0;entryDy=0;exitX=1;exitY=0.5;exitDx=0;exitDy=0;" parent="1" source="JlDimmkbK089iF16lzK3-96" target="bOJx-L6nIY0GMy3P5R1K-8" edge="1">
          <mxGeometry width="50" height="50" relative="1" as="geometry">
            <mxPoint x="530" y="240" as="sourcePoint" />
            <mxPoint x="580" y="190" as="targetPoint" />
          </mxGeometry>
        </mxCell>
        <mxCell id="bOJx-L6nIY0GMy3P5R1K-11" value="" style="endArrow=none;html=1;rounded=0;entryX=0.5;entryY=1;entryDx=0;entryDy=0;exitX=0.451;exitY=0.007;exitDx=0;exitDy=0;exitPerimeter=0;" parent="1" source="bOJx-L6nIY0GMy3P5R1K-6" target="bOJx-L6nIY0GMy3P5R1K-4" edge="1">
          <mxGeometry width="50" height="50" relative="1" as="geometry">
            <mxPoint x="530" y="240" as="sourcePoint" />
            <mxPoint x="580" y="190" as="targetPoint" />
          </mxGeometry>
        </mxCell>
        <mxCell id="bOJx-L6nIY0GMy3P5R1K-12" value="" style="endArrow=none;html=1;rounded=0;entryX=0.5;entryY=1;entryDx=0;entryDy=0;exitX=0.415;exitY=0.038;exitDx=0;exitDy=0;exitPerimeter=0;" parent="1" source="bOJx-L6nIY0GMy3P5R1K-7" target="bOJx-L6nIY0GMy3P5R1K-4" edge="1">
          <mxGeometry width="50" height="50" relative="1" as="geometry">
            <mxPoint x="530" y="240" as="sourcePoint" />
            <mxPoint x="580" y="190" as="targetPoint" />
          </mxGeometry>
        </mxCell>
        <mxCell id="bOJx-L6nIY0GMy3P5R1K-13" value="Código" style="ellipse;whiteSpace=wrap;html=1;" parent="1" vertex="1">
          <mxGeometry x="440" y="180" width="47" height="20" as="geometry" />
        </mxCell>
        <mxCell id="bOJx-L6nIY0GMy3P5R1K-15" value="Nombre" style="ellipse;whiteSpace=wrap;html=1;" parent="1" vertex="1">
          <mxGeometry x="440" y="210" width="47" height="20" as="geometry" />
        </mxCell>
        <mxCell id="bOJx-L6nIY0GMy3P5R1K-16" value="Apellido" style="ellipse;whiteSpace=wrap;html=1;" parent="1" vertex="1">
          <mxGeometry x="440" y="240" width="47" height="20" as="geometry" />
        </mxCell>
        <mxCell id="bOJx-L6nIY0GMy3P5R1K-17" value="Grado" style="ellipse;whiteSpace=wrap;html=1;" parent="1" vertex="1">
          <mxGeometry x="440" y="270" width="47" height="20" as="geometry" />
        </mxCell>
        <mxCell id="bOJx-L6nIY0GMy3P5R1K-18" value="" style="endArrow=none;html=1;rounded=0;entryX=0;entryY=0.5;entryDx=0;entryDy=0;exitX=1;exitY=0.5;exitDx=0;exitDy=0;" parent="1" source="JlDimmkbK089iF16lzK3-96" target="bOJx-L6nIY0GMy3P5R1K-15" edge="1">
          <mxGeometry width="50" height="50" relative="1" as="geometry">
            <mxPoint x="530" y="240" as="sourcePoint" />
            <mxPoint x="580" y="190" as="targetPoint" />
          </mxGeometry>
        </mxCell>
        <mxCell id="bOJx-L6nIY0GMy3P5R1K-19" value="" style="endArrow=none;html=1;rounded=0;entryX=0;entryY=0.5;entryDx=0;entryDy=0;exitX=1;exitY=0.5;exitDx=0;exitDy=0;" parent="1" source="JlDimmkbK089iF16lzK3-96" target="bOJx-L6nIY0GMy3P5R1K-13" edge="1">
          <mxGeometry width="50" height="50" relative="1" as="geometry">
            <mxPoint x="530" y="240" as="sourcePoint" />
            <mxPoint x="580" y="190" as="targetPoint" />
          </mxGeometry>
        </mxCell>
        <mxCell id="bOJx-L6nIY0GMy3P5R1K-20" value="" style="endArrow=none;html=1;rounded=0;entryX=0;entryY=0.5;entryDx=0;entryDy=0;exitX=1;exitY=0.5;exitDx=0;exitDy=0;" parent="1" source="JlDimmkbK089iF16lzK3-96" target="bOJx-L6nIY0GMy3P5R1K-17" edge="1">
          <mxGeometry width="50" height="50" relative="1" as="geometry">
            <mxPoint x="420" y="238" as="sourcePoint" />
            <mxPoint x="450" y="200" as="targetPoint" />
          </mxGeometry>
        </mxCell>
        <mxCell id="bOJx-L6nIY0GMy3P5R1K-21" value="" style="endArrow=none;html=1;rounded=0;entryX=0;entryY=0.5;entryDx=0;entryDy=0;exitX=1;exitY=0.5;exitDx=0;exitDy=0;" parent="1" source="JlDimmkbK089iF16lzK3-96" target="bOJx-L6nIY0GMy3P5R1K-16" edge="1">
          <mxGeometry width="50" height="50" relative="1" as="geometry">
            <mxPoint x="430" y="248" as="sourcePoint" />
            <mxPoint x="460" y="210" as="targetPoint" />
          </mxGeometry>
        </mxCell>
        <mxCell id="bOJx-L6nIY0GMy3P5R1K-22" value="Realiza" style="rhombus;whiteSpace=wrap;html=1;" parent="1" vertex="1">
          <mxGeometry x="200" y="220" width="70" height="30" as="geometry" />
        </mxCell>
        <mxCell id="bOJx-L6nIY0GMy3P5R1K-23" value="Fecha" style="ellipse;whiteSpace=wrap;html=1;" parent="1" vertex="1">
          <mxGeometry x="207.5" y="117.5" width="55" height="20" as="geometry" />
        </mxCell>
        <mxCell id="bOJx-L6nIY0GMy3P5R1K-24" value="" style="endArrow=none;html=1;rounded=0;entryX=0.5;entryY=1;entryDx=0;entryDy=0;exitX=0.5;exitY=0;exitDx=0;exitDy=0;" parent="1" source="bOJx-L6nIY0GMy3P5R1K-22" target="bOJx-L6nIY0GMy3P5R1K-23" edge="1">
          <mxGeometry width="50" height="50" relative="1" as="geometry">
            <mxPoint x="230" y="270" as="sourcePoint" />
            <mxPoint x="280" y="220" as="targetPoint" />
          </mxGeometry>
        </mxCell>
        <mxCell id="bOJx-L6nIY0GMy3P5R1K-26" value="" style="endArrow=none;html=1;rounded=0;entryX=0;entryY=0.5;entryDx=0;entryDy=0;exitX=0.949;exitY=0.542;exitDx=0;exitDy=0;exitPerimeter=0;" parent="1" source="bOJx-L6nIY0GMy3P5R1K-22" target="JlDimmkbK089iF16lzK3-96" edge="1">
          <mxGeometry width="50" height="50" relative="1" as="geometry">
            <mxPoint x="230" y="270" as="sourcePoint" />
            <mxPoint x="280" y="220" as="targetPoint" />
          </mxGeometry>
        </mxCell>
        <mxCell id="bOJx-L6nIY0GMy3P5R1K-27" value="Cod. ID &lt;br&gt;F.K" style="ellipse;whiteSpace=wrap;html=1;" parent="1" vertex="1">
          <mxGeometry x="30" y="220" width="70" height="30" as="geometry" />
        </mxCell>
        <mxCell id="bOJx-L6nIY0GMy3P5R1K-28" value="" style="endArrow=none;html=1;rounded=0;exitX=1;exitY=0.5;exitDx=0;exitDy=0;entryX=0;entryY=0.5;entryDx=0;entryDy=0;" parent="1" source="bOJx-L6nIY0GMy3P5R1K-27" target="bOJx-L6nIY0GMy3P5R1K-22" edge="1">
          <mxGeometry width="50" height="50" relative="1" as="geometry">
            <mxPoint x="230" y="260" as="sourcePoint" />
            <mxPoint x="280" y="210" as="targetPoint" />
          </mxGeometry>
        </mxCell>
        <mxCell id="bOJx-L6nIY0GMy3P5R1K-29" value="Servicio" style="rounded=0;whiteSpace=wrap;html=1;" parent="1" vertex="1">
          <mxGeometry x="202.5" y="320" width="65" height="20" as="geometry" />
        </mxCell>
        <mxCell id="bOJx-L6nIY0GMy3P5R1K-30" value="Código" style="ellipse;whiteSpace=wrap;html=1;" parent="1" vertex="1">
          <mxGeometry x="90" y="307.5" width="60" height="20" as="geometry" />
        </mxCell>
        <mxCell id="bOJx-L6nIY0GMy3P5R1K-31" value="Actividad" style="ellipse;whiteSpace=wrap;html=1;" parent="1" vertex="1">
          <mxGeometry x="90" y="340" width="60" height="20" as="geometry" />
        </mxCell>
        <mxCell id="bOJx-L6nIY0GMy3P5R1K-32" value="" style="endArrow=none;html=1;rounded=0;entryX=0;entryY=0.5;entryDx=0;entryDy=0;exitX=1;exitY=0.5;exitDx=0;exitDy=0;" parent="1" source="bOJx-L6nIY0GMy3P5R1K-30" target="bOJx-L6nIY0GMy3P5R1K-29" edge="1">
          <mxGeometry width="50" height="50" relative="1" as="geometry">
            <mxPoint x="230" y="400" as="sourcePoint" />
            <mxPoint x="280" y="350" as="targetPoint" />
          </mxGeometry>
        </mxCell>
        <mxCell id="bOJx-L6nIY0GMy3P5R1K-33" value="" style="endArrow=none;html=1;rounded=0;entryX=0;entryY=0.5;entryDx=0;entryDy=0;exitX=1;exitY=0.5;exitDx=0;exitDy=0;" parent="1" source="bOJx-L6nIY0GMy3P5R1K-31" target="bOJx-L6nIY0GMy3P5R1K-29" edge="1">
          <mxGeometry width="50" height="50" relative="1" as="geometry">
            <mxPoint x="160" y="328" as="sourcePoint" />
            <mxPoint x="213" y="340" as="targetPoint" />
          </mxGeometry>
        </mxCell>
        <mxCell id="bOJx-L6nIY0GMy3P5R1K-34" value="" style="endArrow=none;html=1;rounded=0;exitX=0.5;exitY=1;exitDx=0;exitDy=0;entryX=0.5;entryY=0;entryDx=0;entryDy=0;" parent="1" source="bOJx-L6nIY0GMy3P5R1K-22" target="bOJx-L6nIY0GMy3P5R1K-29" edge="1">
          <mxGeometry width="50" height="50" relative="1" as="geometry">
            <mxPoint x="190" y="274" as="sourcePoint" />
            <mxPoint x="240" y="310" as="targetPoint" />
          </mxGeometry>
        </mxCell>
        <mxCell id="bOJx-L6nIY0GMy3P5R1K-35" value="Pertenece a" style="rhombus;whiteSpace=wrap;html=1;" parent="1" vertex="1">
          <mxGeometry x="335" y="360" width="80" height="40" as="geometry" />
        </mxCell>
        <mxCell id="bOJx-L6nIY0GMy3P5R1K-36" value="" style="endArrow=none;html=1;rounded=0;exitX=0.5;exitY=0;exitDx=0;exitDy=0;entryX=0.5;entryY=1;entryDx=0;entryDy=0;" parent="1" source="bOJx-L6nIY0GMy3P5R1K-35" target="JlDimmkbK089iF16lzK3-96" edge="1">
          <mxGeometry width="50" height="50" relative="1" as="geometry">
            <mxPoint x="470" y="400" as="sourcePoint" />
            <mxPoint x="370" y="280" as="targetPoint" />
          </mxGeometry>
        </mxCell>
        <mxCell id="bOJx-L6nIY0GMy3P5R1K-37" value="Cuerpo" style="rounded=0;whiteSpace=wrap;html=1;" parent="1" vertex="1">
          <mxGeometry x="342.5" y="460" width="65" height="20" as="geometry" />
        </mxCell>
        <mxCell id="bOJx-L6nIY0GMy3P5R1K-38" value="" style="endArrow=none;html=1;rounded=0;entryX=0.5;entryY=1;entryDx=0;entryDy=0;exitX=0.5;exitY=0;exitDx=0;exitDy=0;" parent="1" source="bOJx-L6nIY0GMy3P5R1K-37" target="bOJx-L6nIY0GMy3P5R1K-35" edge="1">
          <mxGeometry width="50" height="50" relative="1" as="geometry">
            <mxPoint x="440" y="520" as="sourcePoint" />
            <mxPoint x="490" y="470" as="targetPoint" />
          </mxGeometry>
        </mxCell>
        <mxCell id="bOJx-L6nIY0GMy3P5R1K-39" value="Código" style="ellipse;whiteSpace=wrap;html=1;" parent="1" vertex="1">
          <mxGeometry x="200" y="443.75" width="90.5" height="26.25" as="geometry" />
        </mxCell>
        <mxCell id="bOJx-L6nIY0GMy3P5R1K-40" value="Denomiinación" style="ellipse;whiteSpace=wrap;html=1;" parent="1" vertex="1">
          <mxGeometry x="200" y="476.25" width="90.5" height="23.75" as="geometry" />
        </mxCell>
        <mxCell id="bOJx-L6nIY0GMy3P5R1K-41" value="" style="endArrow=none;html=1;rounded=0;entryX=0;entryY=0.5;entryDx=0;entryDy=0;exitX=1;exitY=0.5;exitDx=0;exitDy=0;" parent="1" source="bOJx-L6nIY0GMy3P5R1K-39" target="bOJx-L6nIY0GMy3P5R1K-37" edge="1">
          <mxGeometry width="50" height="50" relative="1" as="geometry">
            <mxPoint x="370.5" y="536.25" as="sourcePoint" />
            <mxPoint x="342.5" y="466.25" as="targetPoint" />
          </mxGeometry>
        </mxCell>
        <mxCell id="bOJx-L6nIY0GMy3P5R1K-42" value="" style="endArrow=none;html=1;rounded=0;exitX=1;exitY=0.5;exitDx=0;exitDy=0;" parent="1" source="bOJx-L6nIY0GMy3P5R1K-40" edge="1">
          <mxGeometry width="50" height="50" relative="1" as="geometry">
            <mxPoint x="300.5" y="464.25" as="sourcePoint" />
            <mxPoint x="340" y="470" as="targetPoint" />
          </mxGeometry>
        </mxCell>
        <mxCell id="bOJx-L6nIY0GMy3P5R1K-45" value="MER: Servicio Militar" style="text;html=1;align=center;verticalAlign=middle;resizable=0;points=[];autosize=1;strokeColor=none;fillColor=none;" parent="1" vertex="1">
          <mxGeometry x="30" y="10" width="130" height="30" as="geometry" />
        </mxCell>
        <mxCell id="bOJx-L6nIY0GMy3P5R1K-46" value="(1,1)" style="text;html=1;align=center;verticalAlign=middle;resizable=0;points=[];autosize=1;strokeColor=none;fillColor=none;" parent="1" vertex="1">
          <mxGeometry x="680" y="210" width="50" height="30" as="geometry" />
        </mxCell>
        <mxCell id="bOJx-L6nIY0GMy3P5R1K-51" value="(1,n)" style="text;html=1;align=center;verticalAlign=middle;resizable=0;points=[];autosize=1;strokeColor=none;fillColor=none;" parent="1" vertex="1">
          <mxGeometry x="481" y="212" width="50" height="30" as="geometry" />
        </mxCell>
        <mxCell id="bOJx-L6nIY0GMy3P5R1K-52" value="(n,1)" style="text;html=1;align=center;verticalAlign=middle;resizable=0;points=[];autosize=1;strokeColor=none;fillColor=none;" parent="1" vertex="1">
          <mxGeometry x="330" y="260" width="50" height="30" as="geometry" />
        </mxCell>
        <mxCell id="bOJx-L6nIY0GMy3P5R1K-53" value="(n,1)" style="text;html=1;align=center;verticalAlign=middle;resizable=0;points=[];autosize=1;strokeColor=none;fillColor=none;" parent="1" vertex="1">
          <mxGeometry x="330" y="413.75" width="50" height="30" as="geometry" />
        </mxCell>
        <mxCell id="bOJx-L6nIY0GMy3P5R1K-54" value="(1,n)" style="text;html=1;align=center;verticalAlign=middle;resizable=0;points=[];autosize=1;strokeColor=none;fillColor=none;" parent="1" vertex="1">
          <mxGeometry x="280" y="213" width="50" height="30" as="geometry" />
        </mxCell>
        <mxCell id="bOJx-L6nIY0GMy3P5R1K-57" value="(1,1)" style="text;html=1;align=center;verticalAlign=middle;resizable=0;points=[];autosize=1;strokeColor=none;fillColor=none;" parent="1" vertex="1">
          <mxGeometry x="409" y="104" width="50" height="30" as="geometry" />
        </mxCell>
      </root>
    </mxGraphModel>
  </diagram>
</mxfile>
